<svg width="40" height="40" viewBox="0 0 40 40" fill="none" xmlns="http://www.w3.org/2000/svg">
<rect width="40" height="40" rx="20" fill="white"/>
<g clip-path="url(#clip0_1_11)">
<mask id="mask0_1_11" style="mask-type:luminance" maskUnits="userSpaceOnUse" x="8" y="8" width="24" height="24">
<path d="M32 8H8V32H32V8Z" fill="white"/>
</mask>
<g mask="url(#mask0_1_11)">
<path d="M19 27H13C12.4696 27 11.9609 26.7893 11.5858 26.4142C11.2107 26.0391 11 25.5304 11 25V14C11 13.4696 11.2107 12.9609 11.5858 12.5858C11.9609 12.2107 12.4696 12 13 12H17L20 15H27C27.5304 15 28.0391 15.2107 28.4142 15.5858C28.7893 15.9609 29 16.4696 29 17V20" stroke="black" stroke-width="2" stroke-linecap="round" stroke-linejoin="round"/>
<path d="M27 27L29 25L27 23" stroke="black" stroke-width="2" stroke-linecap="round" stroke-linejoin="round"/>
<path d="M24 23L22 25L24 27" stroke="black" stroke-width="2" stroke-linecap="round" stroke-linejoin="round"/>
</g>
</g>
<defs>
<clipPath id="clip0_1_11">
<rect width="24" height="24" fill="white" transform="translate(8 8)"/>
</clipPath>
</defs>
</svg>
